<svg xmlns="http://www.w3.org/2000/svg" width="960" height="540" viewBox="0 0 960 540" role="img" aria-labelledby="title desc">
  <title id="title">Car placeholder</title>
  <desc id="desc">Default car image placeholder for empty vehicle image URLs.</desc>
  <defs>
    <linearGradient id="bg" x1="0" y1="0" x2="1" y2="1">
      <stop offset="0" stop-color="#eff6ff"/>
      <stop offset="0.52" stop-color="#dbeafe"/>
      <stop offset="1" stop-color="#eef2ff"/>
    </linearGradient>
    <linearGradient id="car" x1="0" y1="0" x2="1" y2="1">
      <stop offset="0" stop-color="#2563eb"/>
      <stop offset="1" stop-color="#1d4ed8"/>
    </linearGradient>
  </defs>
  <rect width="960" height="540" fill="url(#bg)"/>
  <circle cx="790" cy="94" r="118" fill="#bfdbfe" opacity=".55"/>
  <circle cx="104" cy="446" r="156" fill="#c7d2fe" opacity=".35"/>
  <g fill="none" stroke="#93c5fd" stroke-width="2" opacity=".45">
    <path d="M110 142h220"/>
    <path d="M642 410h210"/>
    <path d="M700 132h96"/>
  </g>
  <g transform="translate(238 176)">
    <path d="M86 174h332c24 0 43-19 43-43v-7c0-23-17-42-40-43l-49-4-46-62C312 17 288 4 262 4H158c-29 0-56 16-70 42L52 112 22 123c-17 6-28 22-28 40v8c0 24 19 43 43 43h39" fill="url(#car)" opacity=".95"/>
    <path d="M132 78l25-44h101c15 0 29 7 38 19l31 43H114z" fill="#dbeafe"/>
    <path d="M332 96l-30-42c-5-7-13-11-22-11h-19v53z" fill="#bfdbfe"/>
    <circle cx="105" cy="181" r="50" fill="#0f172a"/>
    <circle cx="105" cy="181" r="23" fill="#e0f2fe"/>
    <circle cx="376" cy="181" r="50" fill="#0f172a"/>
    <circle cx="376" cy="181" r="23" fill="#e0f2fe"/>
    <rect x="214" y="119" width="70" height="16" rx="8" fill="#1e40af" opacity=".55"/>
  </g>
  <text x="480" y="458" text-anchor="middle" fill="#1e3a8a" font-family="Arial, sans-serif" font-size="26" font-weight="700">CarRental</text>
  <text x="480" y="492" text-anchor="middle" fill="#64748b" font-family="Arial, sans-serif" font-size="18">Vehicle image coming soon</text>
</svg>
